<mxfile host="65bd71144e">
    <diagram id="iJKYkYof2HZl3ui_IY38" name="Page-1">
        <mxGraphModel dx="2280" dy="652" grid="1" gridSize="10" guides="1" tooltips="1" connect="1" arrows="1" fold="1" page="1" pageScale="1" pageWidth="850" pageHeight="1100" math="0" shadow="0">
            <root>
                <mxCell id="0"/>
                <mxCell id="1" parent="0"/>
                <mxCell id="iJDFrRGesAw__XtWsYxl-4" style="edgeStyle=orthogonalEdgeStyle;rounded=0;orthogonalLoop=1;jettySize=auto;html=1;targetPerimeterSpacing=4;sourcePerimeterSpacing=4;" parent="1" source="ab8xI0nHdJx_isCJRF5_-3" target="ab8xI0nHdJx_isCJRF5_-5" edge="1">
                    <mxGeometry relative="1" as="geometry"/>
                </mxCell>
                <mxCell id="iJDFrRGesAw__XtWsYxl-9" value="Push manifests" style="edgeLabel;html=1;align=center;verticalAlign=middle;resizable=0;points=[];fontSize=14;" parent="iJDFrRGesAw__XtWsYxl-4" vertex="1" connectable="0">
                    <mxGeometry x="-0.0828" y="-1" relative="1" as="geometry">
                        <mxPoint y="-18" as="offset"/>
                    </mxGeometry>
                </mxCell>
                <mxCell id="ab8xI0nHdJx_isCJRF5_-3" value="Developer / Operator&amp;nbsp;" style="sketch=0;aspect=fixed;html=1;points=[];align=center;image;fontSize=12;image=img/lib/mscae/Person.svg;" parent="1" vertex="1">
                    <mxGeometry x="-290" y="577.5" width="37" height="50" as="geometry"/>
                </mxCell>
                <mxCell id="iJDFrRGesAw__XtWsYxl-2" value="" style="group" parent="1" vertex="1" connectable="0">
                    <mxGeometry x="-25" y="560" width="165" height="130" as="geometry"/>
                </mxCell>
                <mxCell id="ab8xI0nHdJx_isCJRF5_-5" value="" style="shape=cylinder3;whiteSpace=wrap;html=1;boundedLbl=1;backgroundOutline=1;size=15;fillColor=#dae8fc;strokeColor=#6c8ebf;" parent="iJDFrRGesAw__XtWsYxl-2" vertex="1">
                    <mxGeometry width="140" height="85" as="geometry"/>
                </mxCell>
                <mxCell id="ab8xI0nHdJx_isCJRF5_-4" value="" style="verticalLabelPosition=bottom;html=1;verticalAlign=top;align=center;strokeColor=none;fillColor=#00B0E0;shape=mxgraph.azure.git_repository;" parent="iJDFrRGesAw__XtWsYxl-2" vertex="1">
                    <mxGeometry x="47.5" y="35" width="45" height="40" as="geometry"/>
                </mxCell>
                <mxCell id="ab8xI0nHdJx_isCJRF5_-6" value="&lt;h3&gt;Deployments Repository&lt;/h3&gt;" style="text;html=1;align=center;verticalAlign=middle;resizable=0;points=[];autosize=1;strokeColor=none;fillColor=none;" parent="iJDFrRGesAw__XtWsYxl-2" vertex="1">
                    <mxGeometry x="-25" y="70" width="190" height="60" as="geometry"/>
                </mxCell>
                <mxCell id="iJDFrRGesAw__XtWsYxl-20" value="" style="group" parent="1" vertex="1" connectable="0">
                    <mxGeometry x="380" y="467.5" width="210" height="322.5" as="geometry"/>
                </mxCell>
                <mxCell id="Hwxh1ywnqAZ_IUcyBO3H-1" value="" style="verticalLabelPosition=bottom;verticalAlign=top;html=1;shape=mxgraph.basic.patternFillRect;fillStyle=diag;step=5;fillStrokeWidth=0.2;fillStrokeColor=#dddddd;dashed=1;fillColor=#dae8fc;strokeColor=#6c8ebf;perimeterSpacing=1;" parent="iJDFrRGesAw__XtWsYxl-20" vertex="1">
                    <mxGeometry width="210" height="320" as="geometry"/>
                </mxCell>
                <mxCell id="Hwxh1ywnqAZ_IUcyBO3H-2" value="" style="editableCssRules=.*;shape=image;verticalLabelPosition=bottom;labelBackgroundColor=#ffffff;verticalAlign=top;aspect=fixed;imageAspect=0;image=data:image/svg+xml,PHN2ZyB4bWxucz0iaHR0cDovL3d3dy53My5vcmcvMjAwMC9zdmciIHhtbG5zOnY9Imh0dHBzOi8vdmVjdGEuaW8vbmFubyIgd2lkdGg9IjcwMi44NDYzMTM0NzY1NjI1IiBoZWlnaHQ9IjY4MS45NjcxMDIwNTA3ODEyIiB2aWV3Qm94PSIxMC4wMDEwMjYxNTM1NjQ0NTMgMTAuMDAwOTMzNjQ3MTU1NzYyIDcwMi44NDYzMTM0NzY1NjI1IDY4MS45NjcxMDIwNTA3ODEyIj4mI3hhOwk8c3R5bGUgdHlwZT0idGV4dC9jc3MiPiYjeGE7CS5zdDB7ZmlsbDojMzI2Y2U1O30mI3hhOwkuc3Qxe2ZpbGw6I2ZmZjt9JiN4YTsJPC9zdHlsZT4mI3hhOwk8cGF0aCBjbGFzcz0ic3QwIiBkPSJNMzU4Ljk4NyAxMC4wNmMtNi4yMTMuMzEzLTEyLjMwMSAxLjg1NC0xNy45MDYgNC41MzFMOTYuNzM3IDEzMS4zNDJjLTEyLjgxMSA2LjExOC0yMi4xMTYgMTcuNjg5LTI1LjI4MSAzMS40MzhsLTYwLjI4MSAyNjIuMjVjLTIuODEyIDEyLjIwNy0uNTI0IDI1LjAyNCA2LjM0NCAzNS41MzFhNDYuMzUgNDYuMzUgMCAwIDAgMi42NTYgMy42ODhsMTY5LjEyNSAyMTAuMjgxYzguODY4IDExLjAyMiAyMi4zMTMgMTcuNDQgMzYuNTMxIDE3LjQzOGwyNzEuMjE5LS4wNjJjMTQuMjEyLjAxIDI3LjY1Ny02LjM5NiAzNi41MzEtMTcuNDA2bDE2OS4wNjMtMjEwLjMxM2M4Ljg3My0xMS4wMjggMTIuMTk3LTI1LjQ2NCA5LjAzMS0zOS4yMTlsLTYwLjM3NS0yNjIuMjVjLTMuMTY1LTEzLjc0OC0xMi40Ny0yNS4zMTktMjUuMjgxLTMxLjQzN0wzODEuNjQzIDE0LjU5MmMtNy4wNS0zLjM2OC0xNC44NDEtNC45MjYtMjIuNjU2LTQuNTMxeiIvPiYjeGE7CTxwYXRoIGNsYXNzPSJzdDEgc3QyIiBkPSJNMzYxLjQwOCA5OS4zMDhjLTguMDc3LjAwMS0xNC42MjYgNy4yNzYtMTQuNjI1IDE2LjI1IDAgLjEzOC4wMjguMjY5LjAzMS40MDYtLjAxMiAxLjIxOS0uMDcxIDIuNjg4LS4wMzEgMy43NS4xOTMgNS4xNzYgMS4zMjEgOS4xMzcgMiAxMy45MDYgMS4yMyAxMC4yMDcgMi4yNjEgMTguNjY3IDEuNjI1IDI2LjUzMS0uNjE5IDIuOTY1LTIuODAzIDUuNjc3LTQuNzUgNy41NjNsLS4zNDQgNi4xODhjLTguNzc3LjcyNy0xNy42MTIgMi4wNTktMjYuNDM3IDQuMDYzLTM3Ljk3NSA4LjYyMi03MC42NyAyOC4xODMtOTUuNTYyIDU0LjU5NC0xLjYxNS0xLjEwMi00LjQ0MS0zLjEyOS01LjI4MS0zLjc1LTIuNjExLjM1My01LjI1IDEuMTU4LTguNjg3LS44NDQtNi41NDUtNC40MDYtMTIuNTA2LTEwLjQ4Ny0xOS43MTktMTcuODEyLTMuMzA1LTMuNTA0LTUuNjk4LTYuODQxLTkuNjI1LTEwLjIxOS0uODkyLS43NjctMi4yNTMtMS44MDUtMy4yNS0yLjU5NC0zLjA3LTIuNDQ4LTYuNjkxLTMuNzI0LTEwLjE4Ny0zLjg0NC00LjQ5Ni0uMTU0LTguODI0IDEuNjA0LTExLjY1NiA1LjE1Ni01LjAzNSA2LjMxNS0zLjQyMyAxNS45NjggMy41OTQgMjEuNTYzLjA3MS4wNTcuMTQ3LjEwMS4yMTkuMTU2Ljk2NC43ODIgMi4xNDUgMS43ODMgMy4wMzEgMi40MzggNC4xNjcgMy4wNzcgNy45NzMgNC42NTEgMTIuMTI1IDcuMDk0IDguNzQ3IDUuNDAyIDE1Ljk5OCA5Ljg4MSAyMS43NSAxNS4yODEgMi4yNDYgMi4zOTQgMi42MzkgNi42MTMgMi45MzggOC40MzhsNC42ODggNC4xODhjLTI1LjA5MyAzNy43NjQtMzYuNzA3IDg0LjQwOS0yOS44NDQgMTMxLjkzOGwtNi4xMjUgMS43ODFjLTEuNjE0IDIuMDg1LTMuODk1IDUuMzY1LTYuMjgxIDYuMzQ0LTcuNTI1IDIuMzctMTUuOTk0IDMuMjQxLTI2LjIxOSA0LjMxMy00LjguMzk5LTguOTQyLjE2MS0xNC4wMzEgMS4xMjUtMS4xMi4yMTItMi42ODEuNjE5LTMuOTA2LjkwNi0uMDQzLjAwOS0uMDgyLjAyMi0uMTI1LjAzMS0uMDY3LjAxNS0uMTU1LjA0OC0uMjE5LjA2My04LjYyIDIuMDgzLTE0LjE1OCAxMC4wMDYtMTIuMzc1IDE3LjgxM3MxMC4yMDMgMTIuNTU3IDE4Ljg3NSAxMC42ODhjLjA2My0uMDE0LjE1NC0uMDE3LjIxOS0uMDMxLjA5OC0uMDIyLjE4NC0uMDcuMjgxLS4wOTQgMS4yMDktLjI2NSAyLjcyNC0uNTYxIDMuNzgxLS44NDQgNS4wMDMtMS4zNCA4LjYyNy0zLjMwOCAxMy4xMjUtNS4wMzEgOS42NzctMy40NzEgMTcuNjkyLTYuMzcgMjUuNS03LjUgMy4yNjEtLjI1NSA2LjY5NyAyLjAxMiA4LjQwNiAyLjk2OWw2LjM3NS0xLjA5NGMxNC42NyA0NS40ODMgNDUuNDE0IDgyLjI0NSA4NC4zNDQgMTA1LjMxMmwtMi42NTYgNi4zNzVjLjk1NyAyLjQ3NSAyLjAxMyA1LjgyNSAxLjMgOC4yNjktMi44MzkgNy4zNjEtNy43MDEgMTUuMTMxLTEzLjIzOCAyMy43OTMtMi42ODEgNC4wMDItNS40MjUgNy4xMDgtNy44NDQgMTEuNjg4LS41NzkgMS4wOTYtMS4zMTYgMi43NzktMS44NzUgMy45MzgtMy43NTkgOC4wNDItMS4wMDIgMTcuMzA1IDYuMjE5IDIwLjc4MSA3LjI2NiAzLjQ5OCAxNi4yODQtLjE5MSAyMC4xODctOC4yNS4wMDYtLjAxMS4wMjYtLjAyLjAzMS0uMDMxcy0uMDA0LS4wMjMgMC0uMDMxYy41NTYtMS4xNDMgMS4zNDQtMi42NDQgMS44MTMtMy43MTkgMi4wNzItNC43NDcgMi43NjItOC44MTUgNC4yMTktMTMuNDA2IDMuODctOS43MiA1Ljk5Ni0xOS45MTkgMTEuMzIzLTI2LjI3NCAxLjQ1OS0xLjc0IDMuODM3LTIuNDA5IDYuMzAyLTMuMDdsMy4zMTMtNmMzMy45MzggMTMuMDI3IDcxLjkyNyAxNi41MjIgMTA5Ljg3NSA3LjkwNmExODkuNzcgMTg5Ljc3IDAgMCAwIDI1LjA5NC03LjU2MmwzLjEyNSA1LjYyNWMyLjUwNi44MTUgNS4yNCAxLjIzNiA3LjQ2OSA0LjUzMSAzLjk4NSA2LjgwOSA2LjcxMSAxNC44NjQgMTAuMDMxIDI0LjU5NCAxLjQ1NyA0LjU5MSAyLjE3OCA4LjY1OSA0LjI1IDEzLjQwNi40NzIgMS4wODIgMS4yNTYgMi42MDUgMS44MTMgMy43NSAzLjg5NSA4LjA4NSAxMi45NDIgMTEuNzg3IDIwLjIxOSA4LjI4MSA3LjIxOS0zLjQ3OCA5Ljk4LTEyLjc0IDYuMjE5LTIwLjc4MWwtMS45MDYtMy45MzdjLTIuNDE5LTQuNTgtNS4xNjMtNy42NTQtNy44NDQtMTEuNjU2LTUuNTM3LTguNjYyLTEwLjEzLTE1Ljg1OC0xMi45NjktMjMuMjE5LTEuMTg3LTMuNzk3LjItNi4xNTggMS4xMjUtOC42MjUtLjU1NC0uNjM1LTEuNzM5LTQuMjItMi40MzctNS45MDYgNDAuNDU3LTIzLjg4OCA3MC4yOTktNjIuMDIxIDg0LjMxMy0xMDYuMDYyIDEuODkyLjI5NyA1LjE4Mi44NzkgNi4yNSAxLjA5NCAyLjItMS40NTEgNC4yMjItMy4zNDQgOC4xODgtMy4wMzEgNy44MDggMS4xMjkgMTUuODIzIDQuMDMgMjUuNSA3LjUgNC40OTggMS43MjMgOC4xMjIgMy43MjMgMTMuMTI1IDUuMDYzIDEuMDU3LjI4MyAyLjU3Mi41NDcgMy43ODEuODEzLjA5Ny4wMjQuMTgzLjA3MS4yODEuMDk0LjA2NS4wMTUuMTU2LjAxNy4yMTkuMDMxIDguNjcyIDEuODY3IDE3LjA5NC0yLjg3OSAxOC44NzUtMTAuNjg3cy0zLjc1NC0xNS43MzItMTIuMzc1LTE3LjgxMmMtMS4yNTQtLjI4NS0zLjAzMi0uNzY5LTQuMjUtMS01LjA4OS0uOTY0LTkuMjMxLS43MjYtMTQuMDMxLTEuMTI1LTEwLjIyNS0xLjA3MS0xOC42OTMtMS45NDMtMjYuMjE5LTQuMzEyLTMuMDY4LTEuMTktNS4yNTEtNC44NDEtNi4zMTMtNi4zNDRsLTUuOTA2LTEuNzE5YzMuMDYyLTIyLjE1NCAyLjIzNy00NS4yMTEtMy4wNjItNjguMjgxLTUuMzQ4LTIzLjI4NS0xNC44LTQ0LjU4MS0yNy40MDYtNjMuMzQ0bDUuMTg4LTQuNjU2Yy4yMzctMi42MjQuMDMzLTUuMzc2IDIuNzUtOC4yODEgNS43NTEtNS40MDEgMTMuMDAzLTkuODc5IDIxLjc1LTE1LjI4MSA0LjE1Mi0yLjQ0MyA3Ljk5LTQuMDE3IDEyLjE1Ni03LjA5NC45NDItLjY5NiAyLjIyOS0xLjc5OCAzLjIxOS0yLjU5NCA3LjAxNS01LjU5NiA4LjYzMS0xNS4yNDggMy41OTQtMjEuNTYycy0xNC43OTctNi45MDktMjEuODEyLTEuMzEyYy0uOTk5Ljc5MS0yLjM1NCAxLjgyMy0zLjI1IDIuNTk0LTMuOTI3IDMuMzc4LTYuMzUxIDYuNzE0LTkuNjU2IDEwLjIxOS03LjIxMiA3LjMyNi0xMy4xNzQgMTMuNDM4LTE5LjcxOSAxNy44NDQtMi44MzYgMS42NTEtNi45OSAxLjA4LTguODc1Ljk2OWwtNS41NjIgMy45NjljLTMxLjcxOS0zMy4yNjEtNzQuOTA1LTU0LjUyNS0xMjEuNDA2LTU4LjY1NmwtLjM0NC02LjUzMWMtMS45MDQtMS44MjItNC4yMDMtMy4zNzctNC43ODEtNy4zMTItLjYzNi03Ljg2NC40MjYtMTYuMzI1IDEuNjU2LTI2LjUzMS42NzktNC43NjkgMS44MDctOC43MyAyLTEzLjkwNi4wNDQtMS4xNzctLjAyNi0yLjg4NC0uMDMxLTQuMTU2LS4wMDEtOC45NzQtNi41NDgtMTYuMjUxLTE0LjYyNS0xNi4yNXptLTE4LjMxMiAxMTMuNDM4bC00LjM0NCA3Ni43MTktLjMxMi4xNTZjLS4yOTEgNi44NjMtNS45NCAxMi4zNDQtMTIuODc1IDEyLjM0NGExMi44MiAxMi44MiAwIDAgMS03LjU5NC0yLjQ2OWwtLjEyNS4wNjMtNjIuOTA2LTQ0LjU5NGMxOS4zMzQtMTkuMDExIDQ0LjA2My0zMy4wNiA3Mi41NjItMzkuNTMxIDUuMjA2LTEuMTgyIDEwLjQxLTIuMDU5IDE1LjU5NC0yLjY4N3ptMzYuNjU2IDBjMzMuMjczIDQuMDkyIDY0LjA0NSAxOS4xNTkgODcuNjI1IDQyLjI1bC02Mi41IDQ0LjMxMy0uMjE5LS4wOTRhMTIuOTEgMTIuOTEgMCAwIDEtMTcuNjg3LTIuMzc1Yy0xLjc3MS0yLjIyMS0yLjcwMS00LjgzMi0yLjgxMi03LjQ2OWwtLjA2Mi0uMDMxek0yMzIuMTI2IDI4My42Mmw1Ny40MzcgNTEuMzc1LS4wNjIuMzEzYTEyLjg4IDEyLjg4IDAgMCAxIDEuNjI1IDE3Ljc1IDEyLjg5IDEyLjg5IDAgMCAxLTYuNjg3IDQuNDA2bC0uMDYyLjI1LTczLjYyNSAyMS4yNWMtMy43NDctMzQuMjY1IDQuMzI5LTY3LjU3NCAyMS4zNzUtOTUuMzQ0em0yNTguMTU2LjAzMWM4LjUzNCAxMy44MzMgMTQuOTk3IDI5LjI4MiAxOC44NDQgNDYuMDMxIDMuODAxIDE2LjU0OCA0Ljc1NSAzMy4wNjcgMy4xODggNDkuMDMxbC03NC0yMS4zMTItLjA2Mi0uMzEyYy02LjYyNy0xLjgxMS0xMC42OTktOC41NTItOS4xNTYtMTUuMzEyLjYzMi0yLjc3IDIuMTAyLTUuMTEzIDQuMDk0LTYuODQ0bC0uMDMxLS4xNTYgNTcuMTI1LTUxLjEyNXptLTE0MC42NTYgNTUuMzEzaDIzLjUzMWwxNC42MjUgMTguMjgxLTUuMjUgMjIuODEzLTIxLjEyNSAxMC4xNTYtMjEuMTg3LTEwLjE4Ny01LjI1LTIyLjgxMnptNzUuNDM4IDYyLjU2M2ExMi44MyAxMi44MyAwIDAgMSAyLjk2OS4yMTlsLjEyNS0uMTU2IDc2LjE1NiAxMi44NzVjLTExLjE0NiAzMS4zMTMtMzIuNDczIDU4LjQ0LTYwLjk2OSA3Ni41OTRsLTI5LjU2Mi03MS40MDYuMDk0LS4xMjVjLTIuNzE2LTYuMzEuMDAyLTEzLjcxIDYuMjUtMTYuNzE5IDEuNi0uNzcgMy4yNzEtMS4xOTcgNC45MzgtMS4yODF6bS0xMjcuOTA2LjMxM2ExMi45IDEyLjkgMCAwIDEgMTIuMzc1IDEwLjAzMSAxMi43NyAxMi43NyAwIDAgMS0uNzE5IDcuOTM4bC4yMTkuMjgxLTI5LjI1IDcwLjY4OGMtMjcuMzQ3LTE3LjU0OS00OS4xMjktNDMuODI0LTYwLjc4MS03Ni4wNjJsNzUuNS0xMi44MTIuMTI1LjE1NmMuODQ1LS4xNTUgMS43MDEtLjIzIDIuNTMxLS4yMTl6bTYzLjc4MSAzMC45NjljMi4wMjQtLjA3NCA0LjA3OS4zNDEgNi4wMzEgMS4yODEgMi41NiAxLjIzMyA0LjUzNyAzLjE3MyA1Ljc4MSA1LjVoLjI4MWwzNy4yMTkgNjcuMjVjLTQuODMgMS42MTktOS43OTYgMy4wMDMtMTQuODc1IDQuMTU2LTI4LjQ2NSA2LjQ2My01Ni44MzkgNC41MDUtODIuNTMxLTQuMjVsMzcuMTI1LTY3LjEyNWguMDYzYTEyLjkxIDEyLjkxIDAgMCAxIDEwLjkwNi02LjgxMnoiIHN0cm9rZT0ibm9uZSIgc3Ryb2tlLXdpZHRoPSIuMjUiLz4mI3hhOzwvc3ZnPg==;fontColor=default;dashed=1;" parent="iJDFrRGesAw__XtWsYxl-20" vertex="1">
                    <mxGeometry x="11.11111111111111" y="10.238095238095237" width="32.33190476190476" height="30.71428571428571" as="geometry"/>
                </mxCell>
                <mxCell id="Hwxh1ywnqAZ_IUcyBO3H-3" value="Cluster" style="text;html=1;align=center;verticalAlign=middle;resizable=0;points=[];autosize=1;strokeColor=none;fillColor=none;dashed=1;fontSize=13;fontStyle=1" parent="iJDFrRGesAw__XtWsYxl-20" vertex="1">
                    <mxGeometry x="40.64444444444443" y="10.238095238095237" width="70" height="30" as="geometry"/>
                </mxCell>
                <mxCell id="iJDFrRGesAw__XtWsYxl-11" value="&lt;font style=&quot;font-size: 14px;&quot;&gt;&lt;b&gt;Kubenetes API&lt;br&gt;&lt;/b&gt;&lt;br&gt;&lt;/font&gt;" style="sketch=0;html=1;dashed=0;whitespace=wrap;fillColor=#2875E2;strokeColor=#ffffff;points=[[0.005,0.63,0],[0.1,0.2,0],[0.9,0.2,0],[0.5,0,0],[0.995,0.63,0],[0.72,0.99,0],[0.5,1,0],[0.28,0.99,0]];verticalLabelPosition=bottom;align=center;verticalAlign=top;shape=mxgraph.kubernetes.icon;prIcon=api;fontSize=17;" parent="iJDFrRGesAw__XtWsYxl-20" vertex="1">
                    <mxGeometry x="68.42222222222227" y="199.64285714285714" width="55.55555555555556" height="49.14285714285714" as="geometry"/>
                </mxCell>
                <mxCell id="iJDFrRGesAw__XtWsYxl-18" value="&lt;font style=&quot;font-size: 12px&quot;&gt;CD: Apply / delete&lt;/font&gt;" style="edgeStyle=orthogonalEdgeStyle;rounded=0;orthogonalLoop=1;jettySize=auto;html=1;fontSize=10;sourcePerimeterSpacing=4;targetPerimeterSpacing=4;labelBackgroundColor=none;" parent="iJDFrRGesAw__XtWsYxl-20" source="Hwxh1ywnqAZ_IUcyBO3H-6" target="iJDFrRGesAw__XtWsYxl-11" edge="1">
                    <mxGeometry x="-0.0003" y="54" relative="1" as="geometry">
                        <mxPoint as="offset"/>
                    </mxGeometry>
                </mxCell>
                <mxCell id="-TVabR3jXCyBenwGMlWd-1" value="" style="group" parent="iJDFrRGesAw__XtWsYxl-20" vertex="1" connectable="0">
                    <mxGeometry x="46.19999999999998" y="56.3095238095238" width="100" height="51.19047619047619" as="geometry"/>
                </mxCell>
                <mxCell id="Hwxh1ywnqAZ_IUcyBO3H-6" value="" style="rounded=1;whiteSpace=wrap;html=1;fontSize=13;" parent="-TVabR3jXCyBenwGMlWd-1" vertex="1">
                    <mxGeometry width="100" height="51.19047619047619" as="geometry"/>
                </mxCell>
                <mxCell id="Hwxh1ywnqAZ_IUcyBO3H-5" value="" style="shape=image;verticalLabelPosition=bottom;labelBackgroundColor=default;verticalAlign=top;aspect=fixed;imageAspect=0;image=data:image/svg+xml,PHN2ZyB4bWxucz0iaHR0cDovL3d3dy53My5vcmcvMjAwMC9zdmciIHZpZXdCb3g9Ii0xLjE5IC0yLjE5IDUyOS44OCAyNzQuMzgiIHJvbGU9ImltZyI+PGRlZnM+PHN0eWxlPi5jbHMtMXtmaWxsOiMzMjZjZTV9LmNscy0ze2ZpbGw6bm9uZX08L3N0eWxlPjwvZGVmcz48cGF0aCBjbGFzcz0iY2xzLTEiIGQ9Ik0xMi41ODEyNCA3NS42NTMwOGE3LjM4NjE3IDcuMzg2MTcgMCAwIDEgMC0xMi4zODUwNkw5NS4zMjUzMyA5LjQ3MzgzYTcuMzg2MTYgNy4zODYxNiAwIDAgMSA4LjA1MTg3IDBMMTg2LjEyMTI5IDYzLjI2OGE3LjM4NjE3IDcuMzg2MTcgMCAwIDEgMCAxMi4zODUwNmwtODIuNzQ0MDkgNTMuNzk0MjFhNy4zODYxNiA3LjM4NjE2IDAgMCAxLTguMDUxODcgMHoiLz48cGF0aCBkPSJNMTEyLjQxNjI2IDg1LjE0NjQ4aDUuNzM5NzRhNC4zNTQ2MiA0LjM1NDYyIDAgMCAwIDMuNzcxMjgtNi41MzJsLTE4LjgwNDU0LTMyLjU3MDlhNC4zNTQ4NCA0LjM1NDg0IDAgMCAwLTcuNTQyNzUgMEw3Ni43NzUyOCA3OC42MTQ0NWE0LjM1NDYyIDQuMzU0NjIgMCAwIDAgMy43NzEyOCA2LjUzMmg1LjczOTkzYTQuMzU0NzUgNC4zNTQ3NSAwIDAgMSA0LjM1NDc1IDQuMzU0NzV2MzcuMTgwMTFsMy44NTIgMi41MDQzOWE4LjkxMzA3IDguOTEzMDcgMCAwIDAgOS43MTYgMGwzLjg1MjItMi41MDQzOVY4OS41MDEyM2E0LjM1NDc1IDQuMzU0NzUgMCAwIDEgNC4zNTQ4Mi00LjM1NDc1eiIgZmlsbD0iI2MxZDJmNyIvPjxwYXRoIGNsYXNzPSJjbHMtMyIgZD0iTTk1LjMyNDc5IDI2MC45ODE4YTcuMzQ3MDYgNy4zNDcwNiAwIDAgMCAyLjUwNzIzIDEuMDE3Yy0xLjU3ODA3LS44OTMwNy0zLjE4MjQ1LTEuNzIyMjUtNC44MDQtMi41MTAwOHptLTQuNjgzNTMtMTE2LjkyNzY1bC04LjIwODE2IDUuMzM2MzVhODAuNTEzMjMgODAuNTEzMjMgMCAwIDAgOC4yMDgxNiA0Ljc4NzI3em0xNy40MjAyMiAxNy4yMDMxMWM3LjA2NDE2IDIuMjU5NiAxNC4zNzIgNC4wOTczMiAyMS44NDA5MyA1LjkzODM0IDcuOTIxMyAxLjk1MjU5IDE1LjkzOTEyIDMuOTM2NzUgMjMuODA1MzkgNi41MzQ0OGwtMjUuNjktMTYuNzAxNjlhMTU2LjU5NTI3IDE1Ni41OTUyNyAwIDAgMS0xOS45NTYzLTYuODI1ODZ6bTAgNDUuMTEyNDR2LjQyNDg4YzAgMS44NjM3My0xLjk0OTczIDMuMzc0NDQtNC4zNTQ3MiAzLjM3NDQ0SDk0Ljk5NmMtMi40MDUgMC00LjM1NDcyLTEuNTEwNzEtNC4zNTQ3Mi0zLjM3NDQ0di00Ljc5MDg3Yy0xOC4wNjU4MS00LjY0NC0zNi4xNzY3My0xMC41MDcxNi01MS4zOTk4OS0yNC41MzMwOWwtMTAuNTM5MTggNi44NTE3MmMxNi4yOTc1NiAxNS45OTUyIDM2LjQ3MTI3IDIwLjk4NzI0IDU3LjgyMzExIDI2LjI1MDM3IDE5LjcxNDcgNC44NTkgNDAuMDI2NzMgOS45MDI0NSA1Ny4wNzY3OCAyNC4yNTgyNWwxMC42NDc5LTYuOTIyNTNjLTEzLjQ0MjMxLTExLjk3MTg2LTI5LjMxMjI3LTE3LjE4MjUxLTQ2LjE4ODUyLTIxLjUzODczek0zNi45NDcxOSAyMjMuMDI5bDI4LjIyMzI2IDE4LjM0ODYyYzE0LjU1NDI2IDMuNzA5MTIgMjkuMTYwMzggOC4xNTg4NSA0Mi4yOTc0NSAxNi45NDUxMWwxMC44MDgzLTcuMDI2NzJjLTE0LjMyNzUzLTkuOTE3NjQtMzAuODY1MTktMTQuMDA5NTQtNDguMTc4ODEtMTguMjc3MzUtMTEuMDg4ODUtMi43MzMwNi0yMi4zNjY4NS01LjUyNDktMzMuMTUwMi05Ljk4OTY2em01My42OTQwNy01OS42NjUzNWE5MC4xNzk4MSA5MC4xNzk4MSAwIDAgMS0xNS42MjAyNi05LjE1NDMxbC0xMC43Mzk0NSA2Ljk4MTkyYzguMTA0NDMgNi4yMjk0MiAxNi45ODYzMSAxMC4zNjAyNiAyNi4zNTk2OCAxMy41NzAzN3ptMzcuMjkxNzQgMTEuODE5NDFjLTYuNjA1NDQtMS42MjgyOS0xMy4yNzctMy4yODE1My0xOS44NzE1LTUuMjk0MjV2OS45MjQ3cTMuNjYzODUuOTMyMzIgNy4zODIgMS44NDExOGMyMS43MTM3NCA1LjM1MiA0NC4xNjY3NCAxMC44ODcwOSA2Mi4xNzA0NiAyOC44OTA4MS40NDIzMy40NDIzMi44NDMzMS44OTkzOSAxLjI3MDkgMS4zNDcxM2w3LjIzNTExLTQuNzAzNjhhNy4zMjk2IDcuMzI5NiAwIDAgMCAyLjUyMDkxLTIuNzU1OWMtLjc3MzU1LS44NTA1My0xLjU1NTIyLTEuNjk4MzUtMi4zODU2LTIuNTI4NzMtMTYuMzgyODMtMTYuMzgyOTUtMzYuNzU0NTUtMjEuNDA0OTEtNTguMzIyMjgtMjYuNzIxMjZ6TTExMy40NzQwNSAxODkuNjQycS0yLjctLjY2NTUyLTUuNDEyNTctMS4zNDU0N3Y5LjU4MjA1YzE4LjcyNjkgNC43NTk3NiAzNy41NzY0OCAxMC42NTQ2NSA1My4yODI3MSAyNS40MTc3NGwxMC41MzMzMi02Ljg0Nzk1Yy0uMDI4LS4wMjgxMi0uMDUyNjItLjA1NzQ0LS4wODA3NC0uMDg1NTVDMTU1LjQxMzgyIDE5OS45OCAxMzUuMDQyMSAxOTQuOTU4IDExMy40NzQwNSAxODkuNjQyem0tMjIuODMyNzktNi4yMjg2OGMtMTEuODA5MTgtMy44Mjg2NC0yMy4yOTc1MS04Ljk5MjM4LTMzLjYxNjg4LTE3LjUwNGwtMTAuNjQ5ODQgNi45MjM3OGMxMi45NjI2NiAxMS4yODQ5IDI4LjEzMzM1IDE2LjQ0NjI1IDQ0LjI2NjcyIDIwLjY3Mzc3eiIvPjxwYXRoIGNsYXNzPSJjbHMtMyIgZD0iTTIyLjM4NTg3IDE4OS42Njg5Yy0uMjUyNDQtLjI1MjQzLS40Nzc2Ni0uNTE0NjQtLjcyNTEzLS43Njg3M2wtOS4wNzgwOSA1LjkwMmE3LjM3Mzc4IDcuMzczNzggMCAwIDAtMS4xOTI3MiAxLjAxMzJjLjc2NDA3LjgzOTEgMS41MzQ2MSAxLjY3NTc5IDIuMzU0MTcgMi40OTUzNSAxNi4zODI4IDE2LjM4MjggMzYuNzU0NjcgMjEuNDA0NzcgNTguMzIyNzIgMjYuNzIwNjYgMTguMzgyOSA0LjUzMTM4IDM3LjI4NTI1IDkuMjI0MzggNTMuNTc5NjUgMjEuNDczbDEwLjczOTc1LTYuOTgyMjJjLTE1LjEzNDQ2LTExLjkxMDY2LTMzLjAyNjYxLTE2LjMyNzQ3LTUxLjgzMDM0LTIwLjk2Mi0yMS43MTMyOS01LjM1MjQzLTQ0LjE2NjI5LTEwLjg4NzU0LTYyLjE3MDAxLTI4Ljg5MTI2eiIvPjxwYXRoIGNsYXNzPSJjbHMtMSIgZD0iTTEyOC4wMTc3OCAxNTcuMDI4MzlsLTE5Ljk1NjMtMTIuOTc0MDl2Ni4xNDgyM2ExNTYuNTk1MjcgMTU2LjU5NTI3IDAgMCAwIDE5Ljk1NjMgNi44MjU4NnptLTE5Ljk1NjMgNC4yMjg4N3Y4LjYzMTU1YzYuNTk0NDYgMi4wMTI3MiAxMy4yNjYwNiAzLjY2NiAxOS44NzE1IDUuMjk0MjUgMjEuNTY3NzUgNS4zMTYzNSA0MS45Mzk0NyAxMC4zMzgzMSA1OC4zMjIyNyAyNi43MjEyNi44MzAzOC44MzAzOCAxLjYxMjA1IDEuNjc4MiAyLjM4NTYgMi41Mjg3M2E3LjM5NCA3LjM5NCAwIDAgMC0yLjUyMDkxLTkuNjMwOTJsLTMyLjQxMjE0LTIxLjA3MjA1Yy03Ljg2NjI3LTIuNTk3NzMtMTUuODg0MDktNC41ODE4OS0yMy44MDUzOS02LjUzNDQ4LTcuNDY4OS0xLjg0MTAyLTE0Ljc3Njc3LTMuNjc4NzQtMjEuODQwOTMtNS45MzgzNHptLTE3LjQyMDIyLTcuMDc5NDlhODAuNTEzMjMgODAuNTEzMjMgMCAwIDEtOC4yMDgxNi00Ljc4NzI3bC03LjQxMjEgNC44MTg4NGE5MC4xNzk4MSA5MC4xNzk4MSAwIDAgMCAxNS42MjAyMyA5LjE1NDMxem0yNC44MDIyMSAyNy40NzY5MnEtMy43MTc3NS0uOTE2NTMtNy4zODItMS44NDExOHY4LjQ4M3EyLjcxMDU2LjY4MDQgNS40MTI1NyAxLjM0NTQ3YzIxLjU2ODA1IDUuMzE2MDUgNDEuOTM5NzcgMTAuMzM4IDU4LjMyMjcyIDI2LjcyMDgyLjAyODEyLjAyODExLjA1Mjc3LjA1NzQzLjA4MDc0LjA4NTU1bDcuMDA3MzItNC41NTU3M2MtLjQyNzU5LS40NDc3NC0uODI4NTctLjkwNDgxLTEuMjcwOS0xLjM0NzEzLTE4LjAwMzcxLTE4LjAwMzcxLTQwLjQ1NjcxLTIzLjUzODgyLTYyLjE3MDQ1LTI4Ljg5MDh6bS0yNC44MDIyMS02Ljg5MzA2Yy05LjM3MzM3LTMuMjEwMTEtMTguMjU1MjUtNy4zNDA5NS0yNi4zNTk2OC0xMy41NzAzN2wtNy4yNTcyIDQuNzE4MTFjMTAuMzE5MzcgOC41MTE1NyAyMS44MDc3IDEzLjY3NTMxIDMzLjYxNjg4IDE3LjUwNHptMCAxOC43NDUyNGMtMTYuMTMzMzctNC4yMjc1Mi0zMS4zMDQwNi05LjM4ODg3LTQ0LjI2NjcyLTIwLjY3Mzc3bC03LjEzMzE3IDQuNjM3NTJjMTUuMjIzMTYgMTQuMDI1OTMgMzMuMzM0MDggMTkuODg5MSA1MS4zOTk4OSAyNC41MzMwOXptMTcuNDIwMjIgMTIuODYyODNjMTYuODc2MjUgNC4zNTYyMiAzMi43NDYyMSA5LjU2Njg3IDQ2LjE4ODQ4IDIxLjUzODczbDcuMDk0MjMtNC42MTIxMmMtMTUuNzA2MjMtMTQuNzYzMDktMzQuNTU1ODEtMjAuNjU4LTUzLjI4MjcxLTI1LjQxNzc0em0tNzkuMzU5MjktMjIuMDQ3MzZsLTcuMDQxNDUgNC41Nzc4M2MuMjQ3NDcuMjU0MDkuNDcyNjkuNTE2My43MjUxMy43Njg3MyAxOC4wMDM3MiAxOC4wMDM3MiA0MC40NTY3MiAyMy41Mzg4MyA2Mi4xNyAyOC44OTEyNiAxOC44MDM3MyA0LjYzNDUyIDM2LjY5NTg4IDkuMDUxMzMgNTEuODMwMzQgMjAuOTYybDcuMjE1ODYtNC42OTExOWMtMTcuMDUtMTQuMzU1OC0zNy4zNjIwOC0xOS4zOTkyNi01Ny4wNzY3OC0yNC4yNTgyNS0yMS4zNTE4My01LjI2MzE0LTQxLjUyNTU0LTEwLjI1NTE4LTU3LjgyMzEtMjYuMjUwMzh6TTEzLjc0NDEgMTk4LjMxMDY4Yy0uODE5NTYtLjgxOTU2LTEuNTkwMS0xLjY1NjI1LTIuMzU0MTctMi40OTUzNWE3LjM2NTc2IDcuMzY1NzYgMCAwIDAgMS4xOTI3MiAxMS4zNzM2N2wyNC4zNjQ1NCAxNS44NGMxMC43ODMzNSA0LjQ2NDc3IDIyLjA2MTM1IDcuMjU2NjEgMzMuMTUwMiA5Ljk4OTY2IDE3LjMxMzYyIDQuMjY3ODEgMzMuODUxMjggOC4zNTk3MSA0OC4xNzg4MSAxOC4yNzczNWw3LjM3MDI3LTQuNzkxNjNjLTE2LjI5NDQtMTIuMjQ4NjUtMzUuMTk2NzUtMTYuOTQxNjUtNTMuNTc5NjUtMjEuNDczLTIxLjU2ODA1LTUuMzE1OTMtNDEuOTM5OTItMTAuMzM3OS01OC4zMjI3Mi0yNi43MjA3em03OS4yODM5NiA2MS4xNzhjMS42MjE1MS43ODc4MyAzLjIyNTg5IDEuNjE3IDQuODA0IDIuNTEwMDhhNy4zNjk4NyA3LjM2OTg3IDAgMCAwIDUuNTQ1NzgtMS4wMTdsNC4wOTAxLTIuNjU5MDhjLTEzLjEzNzA3LTguNzg2MjYtMjcuNzQzMTktMTMuMjM2LTQyLjI5NzQ1LTE2Ljk0NTExeiIvPjxwYXRoIGQ9Ik0yNTkuNzU0NzYgNjcuMzU2NnEtMTIuNDEwMzUgMC0xOS45OTUzIDguMDc3LTcuNTg2IDguMDc5NjEtNy41ODQxIDIyLjg1MTM0djcuMjg4SDIxNi40MTZ2MTMuMTk4NDNoMTUuNzU5MzV2ODEuOTQ5NDVoMTQuNzc0NTh2LTgxLjk0OTQ2aDE5LjMwNTYzdi0xMy4xOTg0M2gtMTkuMzA1NjJ2LTcuMjg4cTAtOS4wNTg4OSAzLjg0MTU4LTEzLjg4ODEgMy44NDEzOC00LjgyNTc5IDExLjEyOTgtNC44MjczMWExNS4zMTAxNyAxNS4zMTAxNyAwIDAgMSA0LjgyNjM2LjY4OTY3IDE3LjE5NTM4IDE3LjE5NTM4IDAgMCAxIDMuNjQ0NzcgMS42NzUyMWwzLjc0MjU1LTExLjIyODg5YTE5LjI5NzA4IDE5LjI5NzA4IDAgMCAwLTYuNTAwODItMi41NjE2OSAzOC4zOTMgMzguMzkzIDAgMCAwLTcuODc5NDItLjc4NzIyek0yOTAuMDA2IDY5LjMyNmgxNC43NzVWMjAwLjcyaC0xNC43NzV6bTEwNS42Mjg5MSAxMDYuMTgwMTFhMzYuMTkyIDM2LjE5MiAwIDAgMS0xMS44MTkyOCAxMC4wNDY1MiAzMi43NTYzMyAzMi43NTYzMyAwIDAgMS0xNi4zNTA1MiA0LjMzMjkyIDM1LjYyNTEyIDM1LjYyNTEyIDAgMCAxLTguNjY3OTQtLjk4NCAxNS42NzQ1NCAxNS42NzQ1NCAwIDAgMS02Ljc5NjEyLTMuNTQ1NzEgMTYuMDIxIDE2LjAyMSAwIDAgMS00LjMzMzY4LTYuNjk3NjEgMzEuNDM2NDUgMzEuNDM2NDUgMCAwIDEtMS40Nzc2NS0xMC40NDE2NXYtNjIuNjQzNjVoLTE0Ljc3NDM5djY3LjE3NDg4cTAgMTUuNTY0ODMgNy42ODI0IDIyLjk0OTA4IDcuNjgzNjUgNy4zODcgMjIuNjU0NTQgNy4zODcwOWE0MC44MDE2MiA0MC44MDE2MiAwIDAgMCAxOS41MDI2My00LjcyNjUzIDUwLjIyNjc4IDUwLjIyNjc4IDAgMCAwIDE0LjM4LTExLjAzMjA2djEzLjM5NTQyaDE0Ljc3NDU4di05NS4xNDc4OGgtMTQuNzc0NTd6TTQ4Mi4xMTQgMTUxLjg2NmwzNC40NzQtNDYuMjkzaC0xNy4xMzlsLTI2LjM5NyAzNi4yNDctMjYuMzk3LTM2LjI0N2gtMTcuMTM4bDM0LjQ3NCA0Ni4yOTMtMzYuNDQ0IDQ4Ljg1NWgxNi45NDJsMjguNTYzLTM5LjAwNSAyOC41NjUgMzkuMDA1aDE3LjEzOGwtMzYuNjQxLTQ4Ljg1NXoiIGZpbGw9IiMxYTFhMWEiLz48L3N2Zz4=;" parent="-TVabR3jXCyBenwGMlWd-1" vertex="1">
                    <mxGeometry x="17.78333333333334" y="8.531746031746033" width="59.37071428571428" height="30.71428571428571" as="geometry"/>
                </mxCell>
                <mxCell id="iJDFrRGesAw__XtWsYxl-44" style="orthogonalLoop=1;jettySize=auto;html=1;labelBackgroundColor=none;fontSize=14;sourcePerimeterSpacing=4;targetPerimeterSpacing=4;elbow=vertical;rounded=1;exitX=-0.03;exitY=0.748;exitDx=0;exitDy=0;exitPerimeter=0;" parent="1" source="iJDFrRGesAw__XtWsYxl-21" target="ab8xI0nHdJx_isCJRF5_-3" edge="1">
                    <mxGeometry relative="1" as="geometry"/>
                </mxCell>
                <mxCell id="iJDFrRGesAw__XtWsYxl-21" value="&lt;b&gt;&lt;font style=&quot;font-size: 14px;&quot;&gt;Docker Hub&lt;/font&gt;&lt;/b&gt;" style="sketch=0;aspect=fixed;html=1;points=[];align=center;image;fontSize=12;image=img/lib/mscae/Docker.svg;" parent="1" vertex="1">
                    <mxGeometry x="-150" y="297.8" width="84.59" height="69.37" as="geometry"/>
                </mxCell>
                <mxCell id="iJDFrRGesAw__XtWsYxl-19" style="edgeStyle=orthogonalEdgeStyle;rounded=1;orthogonalLoop=1;jettySize=auto;html=1;dashed=1;labelBackgroundColor=none;fontSize=10;sourcePerimeterSpacing=4;targetPerimeterSpacing=4;" parent="1" source="Hwxh1ywnqAZ_IUcyBO3H-6" target="ab8xI0nHdJx_isCJRF5_-5" edge="1">
                    <mxGeometry relative="1" as="geometry"/>
                </mxCell>
                <mxCell id="iJDFrRGesAw__XtWsYxl-22" value="&lt;font style=&quot;font-size: 14px;&quot;&gt;Sync / pull manifests&lt;/font&gt;" style="edgeLabel;html=1;align=center;verticalAlign=middle;resizable=0;points=[];fontSize=10;" parent="iJDFrRGesAw__XtWsYxl-19" vertex="1" connectable="0">
                    <mxGeometry x="-0.3192" y="2" relative="1" as="geometry">
                        <mxPoint x="-108" y="40" as="offset"/>
                    </mxGeometry>
                </mxCell>
                <mxCell id="iJDFrRGesAw__XtWsYxl-28" style="edgeStyle=orthogonalEdgeStyle;rounded=1;orthogonalLoop=1;jettySize=auto;html=1;labelBackgroundColor=none;fontSize=14;sourcePerimeterSpacing=4;targetPerimeterSpacing=4;" parent="1" source="iJDFrRGesAw__XtWsYxl-23" target="iJDFrRGesAw__XtWsYxl-25" edge="1">
                    <mxGeometry relative="1" as="geometry"/>
                </mxCell>
                <mxCell id="iJDFrRGesAw__XtWsYxl-29" value="Push code&amp;nbsp;" style="edgeLabel;html=1;align=center;verticalAlign=middle;resizable=0;points=[];fontSize=14;" parent="iJDFrRGesAw__XtWsYxl-28" vertex="1" connectable="0">
                    <mxGeometry x="0.0979" y="-3" relative="1" as="geometry">
                        <mxPoint x="-20" y="-28" as="offset"/>
                    </mxGeometry>
                </mxCell>
                <mxCell id="iJDFrRGesAw__XtWsYxl-23" value="Developer" style="sketch=0;aspect=fixed;html=1;points=[];align=center;image;fontSize=12;image=img/lib/mscae/Person.svg;" parent="1" vertex="1">
                    <mxGeometry x="-660" y="307.49" width="37" height="50" as="geometry"/>
                </mxCell>
                <mxCell id="iJDFrRGesAw__XtWsYxl-24" value="" style="group" parent="1" vertex="1" connectable="0">
                    <mxGeometry x="-455" y="290" width="165" height="130" as="geometry"/>
                </mxCell>
                <mxCell id="iJDFrRGesAw__XtWsYxl-25" value="" style="shape=cylinder3;whiteSpace=wrap;html=1;boundedLbl=1;backgroundOutline=1;size=15;fillColor=#dae8fc;strokeColor=#6c8ebf;" parent="iJDFrRGesAw__XtWsYxl-24" vertex="1">
                    <mxGeometry width="140" height="85" as="geometry"/>
                </mxCell>
                <mxCell id="iJDFrRGesAw__XtWsYxl-26" value="" style="verticalLabelPosition=bottom;html=1;verticalAlign=top;align=center;strokeColor=none;fillColor=#00B0E0;shape=mxgraph.azure.git_repository;" parent="iJDFrRGesAw__XtWsYxl-24" vertex="1">
                    <mxGeometry x="47.5" y="35" width="45" height="40" as="geometry"/>
                </mxCell>
                <mxCell id="iJDFrRGesAw__XtWsYxl-27" value="&lt;h3&gt;Source code repoistory&lt;/h3&gt;" style="text;html=1;align=center;verticalAlign=middle;resizable=0;points=[];autosize=1;strokeColor=none;fillColor=none;" parent="iJDFrRGesAw__XtWsYxl-24" vertex="1">
                    <mxGeometry x="-20" y="70" width="180" height="60" as="geometry"/>
                </mxCell>
                <mxCell id="iJDFrRGesAw__XtWsYxl-39" style="edgeStyle=entityRelationEdgeStyle;rounded=1;orthogonalLoop=1;jettySize=auto;html=1;labelBackgroundColor=none;fontSize=14;sourcePerimeterSpacing=4;targetPerimeterSpacing=4;" parent="iJDFrRGesAw__XtWsYxl-24" source="iJDFrRGesAw__XtWsYxl-25" target="iJDFrRGesAw__XtWsYxl-25" edge="1">
                    <mxGeometry relative="1" as="geometry">
                        <Array as="points">
                            <mxPoint x="70" y="-40"/>
                        </Array>
                    </mxGeometry>
                </mxCell>
                <mxCell id="iJDFrRGesAw__XtWsYxl-41" value="CI: Build image" style="edgeLabel;html=1;align=center;verticalAlign=middle;resizable=0;points=[];fontSize=14;" parent="iJDFrRGesAw__XtWsYxl-39" vertex="1" connectable="0">
                    <mxGeometry x="-0.1174" y="-1" relative="1" as="geometry">
                        <mxPoint x="6" y="-21" as="offset"/>
                    </mxGeometry>
                </mxCell>
                <mxCell id="iJDFrRGesAw__XtWsYxl-30" value="CD: Upload image" style="edgeStyle=orthogonalEdgeStyle;rounded=1;orthogonalLoop=1;jettySize=auto;html=1;labelBackgroundColor=none;fontSize=14;sourcePerimeterSpacing=4;targetPerimeterSpacing=4;" parent="1" source="iJDFrRGesAw__XtWsYxl-25" target="iJDFrRGesAw__XtWsYxl-21" edge="1">
                    <mxGeometry x="0.0062" y="23" relative="1" as="geometry">
                        <mxPoint y="1" as="offset"/>
                    </mxGeometry>
                </mxCell>
            </root>
        </mxGraphModel>
    </diagram>
</mxfile>